/* XPM */
static char * wall_ok_xpm[] = {
"80 80 191 2",
"  	c #A36B62",
". 	c #905753",
"+ 	c #8D5350",
"@ 	c #874947",
"# 	c #E1D0C4",
"$ 	c #FAE1CB",
"% 	c #F8DAC0",
"& 	c #F8DABF",
"* 	c #F5D2C4",
"= 	c #F0BED0",
"- 	c #EBAEC4",
"; 	c #EBADC3",
"> 	c #E8A7BD",
", 	c #A66E67",
"' 	c #EAA9C0",
") 	c #814446",
"! 	c #9D655D",
"~ 	c #925954",
"{ 	c #8C524F",
"] 	c #8D5250",
"^ 	c #8B514F",
"/ 	c #77383E",
"( 	c #D0A889",
"_ 	c #F8E4D1",
": 	c #FAE2CE",
"< 	c #F2CFAF",
"[ 	c #E6B19B",
"} 	c #EBAFC4",
"| 	c #F0BDCE",
"1 	c #EBACC3",
"2 	c #E9A7BE",
"3 	c #DF8CA9",
"4 	c #87494D",
"5 	c #E28FAC",
"6 	c #7C3D41",
"7 	c #844848",
"8 	c #9A625B",
"9 	c #9A615A",
"0 	c #7B3F42",
"a 	c #6C2633",
"b 	c #D0A98B",
"c 	c #ECC5A1",
"d 	c #F6E0CB",
"e 	c #FCE9D7",
"f 	c #FCE9D8",
"g 	c #F1CFB1",
"h 	c #E7BB91",
"i 	c #E6B29D",
"j 	c #E598B4",
"k 	c #F0BFD0",
"l 	c #F1C0D1",
"m 	c #ECB0C5",
"n 	c #E290AC",
"o 	c #DE89A6",
"p 	c #824249",
"q 	c #E18BA9",
"r 	c #7B3B40",
"s 	c #965D57",
"t 	c #A46B62",
"u 	c #9F655E",
"v 	c #9A605A",
"w 	c #703138",
"x 	c #6C2834",
"y 	c #ECC5A0",
"z 	c #EFCCAD",
"A 	c #FFF3E6",
"B 	c #FDEAD8",
"C 	c #FDEAD9",
"D 	c #EAC29D",
"E 	c #E599B5",
"F 	c #E599B3",
"G 	c #F4C9D8",
"H 	c #F2C4D4",
"I 	c #F1C4D4",
"J 	c #E9AAC0",
"K 	c #E18AA8",
"L 	c #7B3C40",
"M 	c #965D58",
"N 	c #9F665E",
"O 	c #995E59",
"P 	c #945955",
"Q 	c #713139",
"R 	c #EFCDAD",
"S 	c #FEF1E3",
"T 	c #FCE4CE",
"U 	c #FCE4CF",
"V 	c #EAC29C",
"W 	c #E599B4",
"X 	c #F3C9D7",
"Y 	c #EFBED0",
"Z 	c #EFBDCF",
"` 	c #EFBECF",
" .	c #E8A6BD",
"..	c #975E58",
"+.	c #A0665F",
"@.	c #9A5E59",
"#.	c #9A5F59",
"$.	c #955A56",
"%.	c #FFF2E4",
"&.	c #FDE4CF",
"*.	c #FDE5D0",
"=.	c #E8A7BE",
"-.	c #7F4143",
";.	c #88514D",
">.	c #814C49",
",.	c #7D4746",
"'.	c #7E4746",
").	c #7C4544",
"!.	c #713239",
"~.	c #F0D0B3",
"{.	c #E0C8B7",
"].	c #DFC0A9",
"^.	c #DFC0AA",
"/.	c #E7BC95",
"(.	c #E8A2BA",
"_.	c #E1A8BB",
":.	c #DC9DB3",
"<.	c #DC9CB3",
"[.	c #DF94AE",
"}.	c #7E4043",
"|.	c #814847",
"1.	c #602B2F",
"2.	c #551D26",
"3.	c #561E27",
"4.	c #571F28",
"5.	c #662A32",
"6.	c #6D2834",
"7.	c #D0A98A",
"8.	c #F2D1B3",
"9.	c #D0AA90",
"0.	c #BB8E72",
"a.	c #BB8E73",
"b.	c #CA9E7E",
"c.	c #E6BA90",
"d.	c #E8A1BB",
"e.	c #DA92AB",
"f.	c #C87191",
"g.	c #C66D8E",
"h.	c #CB7392",
"i.	c #DC86A4",
"j.	c #84454B",
"k.	c #874E4C",
"l.	c #602B30",
"m.	c #5A232A",
"n.	c #5A242A",
"o.	c #5B242B",
"p.	c #631F2C",
"q.	c #DABAA4",
"r.	c #BF947A",
"s.	c #BF9479",
"t.	c #CBA081",
"u.	c #E9B8A4",
"v.	c #DD97B1",
"w.	c #CA7594",
"x.	c #C97292",
"y.	c #C97291",
"z.	c #CB7594",
"A.	c #DC88A5",
"B.	c #8C5252",
"C.	c #DF8AA7",
"D.	c #A26961",
"E.	c #8F5552",
"F.	c #8B524F",
"G.	c #864746",
"H.	c #E1CFC3",
"I.	c #F8DFC9",
"J.	c #F6D8BE",
"K.	c #F6D7BD",
"L.	c #F5D1C3",
"M.	c #EAACC2",
"N.	c #EAABC1",
"O.	c #E7A6BC",
"P.	c #A56D67",
"Q.	c #E9A8BF",
"R.	c #864C4B",
"S.	c #5E282D",
"T.	c #572028",
"U.	c #582129",
"V.	c #611B2A",
"W.	c #D9B9A2",
"X.	c #CEA78D",
"Y.	c #BC9075",
"Z.	c #C89D7D",
"`.	c #E9B7A2",
" +	c #DC95AF",
".+	c #C87291",
"++	c #C76F8F",
"@+	c #CA7292",
"#+	c #DB86A4",
"$+	c #8B5051",
"%+	c #DE88A6",
"  . + + + + + + + + + + @ # $ % % % % % % % % % % & * = - ; ; ; ; ; ; ; ; ; ; > , . + + + + + + + + + + @ # $ % % % % % % % % % % & * = - ; ; ; ; ; ; ; ; ; ; ' ",
") ! ~ { ] ] ] ] ] ] + ^ / ( _ : & & & & & & & & % < [ } | - 1 1 1 1 1 1 1 ; 2 3 4 ! ~ { ] ] ] ] ] ] + ^ / ( _ : & & & & & & & & % < [ } | - 1 1 1 1 1 1 1 ; 2 5 ",
"6 7 8 ! ! ! ! ! ! ! 9 0 a b c d e f f f f f f f g h i j } k l l l l l l l m n o p 7 8 ! ! ! ! ! ! ! 9 0 a b c d e f f f f f f f g h i j } k l l l l l l l m n q ",
"6 r s t u u u u u u v w x b y z A B C C C C C C D h i E F G H I I I I I H J K o p r s t u u u u u u v w x b y z A B C C C C C C D h i E F G H I I I I I H J K q ",
"6 L M N O O O O O O P Q x b y R S T U U U U U U V h i E W X Y Z Z Z Z Z `  .K o p L M N O O O O O O P Q x b y R S T U U U U U U V h i E W X Y Z Z Z Z Z `  .K q ",
"6 L M N O O O O O O P Q x b y R S T U U U U U U V h i E W X Y Z Z Z Z Z `  .K o p L M N O O O O O O P Q x b y R S T U U U U U U V h i E W X Y Z Z Z Z Z `  .K q ",
"6 L M N O O O O O O P Q x b y R S T U U U U U U V h i E W X Y Z Z Z Z Z `  .K o p L M N O O O O O O P Q x b y R S T U U U U U U V h i E W X Y Z Z Z Z Z `  .K q ",
"6 L M N O O O O O O P Q x b y R S T U U U U U U V h i E W X Y Z Z Z Z Z `  .K o p L M N O O O O O O P Q x b y R S T U U U U U U V h i E W X Y Z Z Z Z Z `  .K q ",
"6 L M N O O O O O O P Q x b y R S T U U U U U U V h i E W X Y Z Z Z Z Z `  .K o p L M N O O O O O O P Q x b y R S T U U U U U U V h i E W X Y Z Z Z Z Z `  .K q ",
"6 L M N O O O O O O P Q x b y R S T U U U U U U V h i E W X Y Z Z Z Z Z `  .K o p L M N O O O O O O P Q x b y R S T U U U U U U V h i E W X Y Z Z Z Z Z `  .K q ",
"6 L M N O O O O O O P Q x b y R S T U U U U U U V h i E W X Y Z Z Z Z Z `  .K o p L M N O O O O O O P Q x b y R S T U U U U U U V h i E W X Y Z Z Z Z Z `  .K q ",
"6 L M N O O O O O O P Q x b y R S T U U U U U U V h i E W X Y Z Z Z Z Z `  .K o p L M N O O O O O O P Q x b y R S T U U U U U U V h i E W X Y Z Z Z Z Z `  .K q ",
"6 L M N O O O O O O P Q x b y R S T U U U U U U V h i E W X Y Z Z Z Z Z `  .K o p L M N O O O O O O P Q x b y R S T U U U U U U V h i E W X Y Z Z Z Z Z `  .K q ",
"6 L M N O O O O O O P Q x b y R S T U U U U U U V h i E W X Y Z Z Z Z Z `  .K o p L M N O O O O O O P Q x b y R S T U U U U U U V h i E W X Y Z Z Z Z Z `  .K q ",
"6 L M N O O O O O O P Q x b y R S T U U U U U U V h i E W X Y Z Z Z Z Z `  .K o p L M N O O O O O O P Q x b y R S T U U U U U U V h i E W X Y Z Z Z Z Z `  .K q ",
"6 L M N O O O O O O P Q x b y R S T U U U U U U V h i E W X Y Z Z Z Z Z `  .K o p L M N O O O O O O P Q x b y R S T U U U U U U V h i E W X Y Z Z Z Z Z `  .K q ",
"6 L M N O O O O O O P Q x b y R S T U U U U U U V h i E W X Y Z Z Z Z Z `  .K o p L M N O O O O O O P Q x b y R S T U U U U U U V h i E W X Y Z Z Z Z Z `  .K q ",
"6 L M N O O O O O O P Q x b y R S T U U U U U U V h i E W X Y Z Z Z Z Z `  .K o p L M N O O O O O O P Q x b y R S T U U U U U U V h i E W X Y Z Z Z Z Z `  .K q ",
"6 L M N O O O O O O P Q x b y R S T U U U U U U V h i E W X Y Z Z Z Z Z `  .K o p L M N O O O O O O P Q x b y R S T U U U U U U V h i E W X Y Z Z Z Z Z `  .K q ",
"6 L M N O O O O O O P Q x b y R S T U U U U U U V h i E W X Y Z Z Z Z Z `  .K o p L M N O O O O O O P Q x b y R S T U U U U U U V h i E W X Y Z Z Z Z Z `  .K q ",
"6 L M N O O O O O O P Q x b y R S T U U U U U U V h i E W X Y Z Z Z Z Z `  .K o p L M N O O O O O O P Q x b y R S T U U U U U U V h i E W X Y Z Z Z Z Z `  .K q ",
"6 L M N O O O O O O P Q x b y R S T U U U U U U V h i E W X Y Z Z Z Z Z `  .K o p L M N O O O O O O P Q x b y R S T U U U U U U V h i E W X Y Z Z Z Z Z `  .K q ",
"6 L M N O O O O O O P Q x b y R S T U U U U U U V h i E W X Y Z Z Z Z Z `  .K o p L M N O O O O O O P Q x b y R S T U U U U U U V h i E W X Y Z Z Z Z Z `  .K q ",
"6 L M N O O O O O O P Q x b y R S T U U U U U U V h i E W X Y Z Z Z Z Z `  .K o p L M N O O O O O O P Q x b y R S T U U U U U U V h i E W X Y Z Z Z Z Z `  .K q ",
"6 L M N O O O O O O P Q x b y R S T U U U U U U V h i E W X Y Z Z Z Z Z `  .K o p L M N O O O O O O P Q x b y R S T U U U U U U V h i E W X Y Z Z Z Z Z `  .K q ",
"6 L M N O O O O O O P Q x b y R S T U U U U U U V h i E W X Y Z Z Z Z Z `  .K o p L M N O O O O O O P Q x b y R S T U U U U U U V h i E W X Y Z Z Z Z Z `  .K q ",
"6 L M N O O O O O O P Q x b y R S T U U U U U U V h i E W X Y Z Z Z Z Z `  .K o p L M N O O O O O O P Q x b y R S T U U U U U U V h i E W X Y Z Z Z Z Z `  .K q ",
"6 L M N O O O O O O P Q x b y R S T U U U U U U V h i E W X Y Z Z Z Z Z `  .K o p L M N O O O O O O P Q x b y R S T U U U U U U V h i E W X Y Z Z Z Z Z `  .K q ",
"6 L M N O O O O O O P Q x b y R S T U U U U U U V h i E W X Y Z Z Z Z Z `  .K o p L M N O O O O O O P Q x b y R S T U U U U U U V h i E W X Y Z Z Z Z Z `  .K q ",
"6 L M N O O O O O O P Q x b y R S T U U U U U U V h i E W X Y Z Z Z Z Z `  .K o p L M N O O O O O O P Q x b y R S T U U U U U U V h i E W X Y Z Z Z Z Z `  .K q ",
"6 L M N O O O O O O P Q x b y R S T U U U U U U V h i E W X Y Z Z Z Z Z `  .K o p L M N O O O O O O P Q x b y R S T U U U U U U V h i E W X Y Z Z Z Z Z `  .K q ",
"6 L M N O O O O O O P Q x b y R S T U U U U U U V h i E W X Y Z Z Z Z Z `  .K o p L M N O O O O O O P Q x b y R S T U U U U U U V h i E W X Y Z Z Z Z Z `  .K q ",
"6 L M N O O O O O O P Q x b y R S T U U U U U U V h i E W X Y Z Z Z Z Z `  .K o p L M N O O O O O O P Q x b y R S T U U U U U U V h i E W X Y Z Z Z Z Z `  .K q ",
"6 L M N O O O O O O P Q x b y R S T U U U U U U V h i E W X Y Z Z Z Z Z `  .K o p L M N O O O O O O P Q x b y R S T U U U U U U V h i E W X Y Z Z Z Z Z `  .K q ",
"6 L M N O O O O O O P Q x b y R S T U U U U U U V h i E W X Y Z Z Z Z Z `  .K o p L M N O O O O O O P Q x b y R S T U U U U U U V h i E W X Y Z Z Z Z Z `  .K q ",
"6 L M N O O O O O O P Q x b y R S T U U U U U U V h i E W X Y Z Z Z Z Z `  .K o p L M N O O O O O O P Q x b y R S T U U U U U U V h i E W X Y Z Z Z Z Z `  .K q ",
"6 L ..+.@.#.#.#.#.#.$.Q x b y R %.&.*.*.*.*.*.*.V h i E F G k Y Y Y Y Y = =.K o p L ..+.@.#.#.#.#.#.$.Q x b y R %.&.*.*.*.*.*.*.V h i E F G k Y Y Y Y Y = =.K q ",
"6 -.;.>.,.'.'.'.'.'.).!.x b y ~.{.].^.^.^.^.^.^./.h i W (._.:.<.<.<.<.<.:.[.q o p -.;.>.,.'.'.'.'.'.).!.x b y ~.{.].^.^.^.^.^.^./.h i W (._.:.<.<.<.<.<.:.[.q q ",
"}.|.1.2.3.3.3.3.3.3.4.5.6.7.8.9.0.a.a.a.a.a.a.a.b.c.i d.e.f.g.g.g.g.g.g.g.h.i.o j.|.1.2.3.3.3.3.3.3.4.5.6.7.8.9.0.a.a.a.a.a.a.a.b.c.i d.e.f.g.g.g.g.g.g.g.h.i.q ",
"k.l.m.n.n.n.n.n.n.n.n.o.p.q.9.r.s.s.s.s.s.s.s.s.s.t.u.v.w.x.x.x.x.x.x.x.x.y.z.A.B.l.m.n.n.n.n.n.n.n.n.o.p.q.9.r.s.s.s.s.s.s.s.s.s.t.u.v.w.x.x.x.x.x.x.x.x.y.z.C.",
"D.E.^ F.F.F.F.F.F.F.F.F.G.H.I.J.J.J.J.J.J.J.J.J.J.K.L.Z M.N.N.N.N.N.N.N.N.N.N.O.P.E.^ F.F.F.F.F.F.F.F.F.G.H.I.J.J.J.J.J.J.J.J.J.J.K.L.Z M.N.N.N.N.N.N.N.N.N.N.Q.",
") ! ~ { ] ] ] ] ] ] + ^ / ( _ : & & & & & & & & % < [ } | - 1 1 1 1 1 1 1 ; 2 3 4 ! ~ { ] ] ] ] ] ] + ^ / ( _ : & & & & & & & & % < [ } | - 1 1 1 1 1 1 1 ; 2 5 ",
"6 7 8 ! ! ! ! ! ! ! 9 0 a b c d e f f f f f f f g h i j } k l l l l l l l m n o p 7 8 ! ! ! ! ! ! ! 9 0 a b c d e f f f f f f f g h i j } k l l l l l l l m n q ",
"6 r s t u u u u u u v w x b y z A B C C C C C C D h i E F G H I I I I I H J K o p r s t u u u u u u v w x b y z A B C C C C C C D h i E F G H I I I I I H J K q ",
"6 L M N O O O O O O P Q x b y R S T U U U U U U V h i E W X Y Z Z Z Z Z `  .K o p L M N O O O O O O P Q x b y R S T U U U U U U V h i E W X Y Z Z Z Z Z `  .K q ",
"6 L M N O O O O O O P Q x b y R S T U U U U U U V h i E W X Y Z Z Z Z Z `  .K o p L M N O O O O O O P Q x b y R S T U U U U U U V h i E W X Y Z Z Z Z Z `  .K q ",
"6 L M N O O O O O O P Q x b y R S T U U U U U U V h i E W X Y Z Z Z Z Z `  .K o p L M N O O O O O O P Q x b y R S T U U U U U U V h i E W X Y Z Z Z Z Z `  .K q ",
"6 L M N O O O O O O P Q x b y R S T U U U U U U V h i E W X Y Z Z Z Z Z `  .K o p L M N O O O O O O P Q x b y R S T U U U U U U V h i E W X Y Z Z Z Z Z `  .K q ",
"6 L M N O O O O O O P Q x b y R S T U U U U U U V h i E W X Y Z Z Z Z Z `  .K o p L M N O O O O O O P Q x b y R S T U U U U U U V h i E W X Y Z Z Z Z Z `  .K q ",
"6 L M N O O O O O O P Q x b y R S T U U U U U U V h i E W X Y Z Z Z Z Z `  .K o p L M N O O O O O O P Q x b y R S T U U U U U U V h i E W X Y Z Z Z Z Z `  .K q ",
"6 L M N O O O O O O P Q x b y R S T U U U U U U V h i E W X Y Z Z Z Z Z `  .K o p L M N O O O O O O P Q x b y R S T U U U U U U V h i E W X Y Z Z Z Z Z `  .K q ",
"6 L M N O O O O O O P Q x b y R S T U U U U U U V h i E W X Y Z Z Z Z Z `  .K o p L M N O O O O O O P Q x b y R S T U U U U U U V h i E W X Y Z Z Z Z Z `  .K q ",
"6 L M N O O O O O O P Q x b y R S T U U U U U U V h i E W X Y Z Z Z Z Z `  .K o p L M N O O O O O O P Q x b y R S T U U U U U U V h i E W X Y Z Z Z Z Z `  .K q ",
"6 L M N O O O O O O P Q x b y R S T U U U U U U V h i E W X Y Z Z Z Z Z `  .K o p L M N O O O O O O P Q x b y R S T U U U U U U V h i E W X Y Z Z Z Z Z `  .K q ",
"6 L M N O O O O O O P Q x b y R S T U U U U U U V h i E W X Y Z Z Z Z Z `  .K o p L M N O O O O O O P Q x b y R S T U U U U U U V h i E W X Y Z Z Z Z Z `  .K q ",
"6 L M N O O O O O O P Q x b y R S T U U U U U U V h i E W X Y Z Z Z Z Z `  .K o p L M N O O O O O O P Q x b y R S T U U U U U U V h i E W X Y Z Z Z Z Z `  .K q ",
"6 L M N O O O O O O P Q x b y R S T U U U U U U V h i E W X Y Z Z Z Z Z `  .K o p L M N O O O O O O P Q x b y R S T U U U U U U V h i E W X Y Z Z Z Z Z `  .K q ",
"6 L M N O O O O O O P Q x b y R S T U U U U U U V h i E W X Y Z Z Z Z Z `  .K o p L M N O O O O O O P Q x b y R S T U U U U U U V h i E W X Y Z Z Z Z Z `  .K q ",
"6 L M N O O O O O O P Q x b y R S T U U U U U U V h i E W X Y Z Z Z Z Z `  .K o p L M N O O O O O O P Q x b y R S T U U U U U U V h i E W X Y Z Z Z Z Z `  .K q ",
"6 L M N O O O O O O P Q x b y R S T U U U U U U V h i E W X Y Z Z Z Z Z `  .K o p L M N O O O O O O P Q x b y R S T U U U U U U V h i E W X Y Z Z Z Z Z `  .K q ",
"6 L M N O O O O O O P Q x b y R S T U U U U U U V h i E W X Y Z Z Z Z Z `  .K o p L M N O O O O O O P Q x b y R S T U U U U U U V h i E W X Y Z Z Z Z Z `  .K q ",
"6 L M N O O O O O O P Q x b y R S T U U U U U U V h i E W X Y Z Z Z Z Z `  .K o p L M N O O O O O O P Q x b y R S T U U U U U U V h i E W X Y Z Z Z Z Z `  .K q ",
"6 L M N O O O O O O P Q x b y R S T U U U U U U V h i E W X Y Z Z Z Z Z `  .K o p L M N O O O O O O P Q x b y R S T U U U U U U V h i E W X Y Z Z Z Z Z `  .K q ",
"6 L M N O O O O O O P Q x b y R S T U U U U U U V h i E W X Y Z Z Z Z Z `  .K o p L M N O O O O O O P Q x b y R S T U U U U U U V h i E W X Y Z Z Z Z Z `  .K q ",
"6 L M N O O O O O O P Q x b y R S T U U U U U U V h i E W X Y Z Z Z Z Z `  .K o p L M N O O O O O O P Q x b y R S T U U U U U U V h i E W X Y Z Z Z Z Z `  .K q ",
"6 L M N O O O O O O P Q x b y R S T U U U U U U V h i E W X Y Z Z Z Z Z `  .K o p L M N O O O O O O P Q x b y R S T U U U U U U V h i E W X Y Z Z Z Z Z `  .K q ",
"6 L M N O O O O O O P Q x b y R S T U U U U U U V h i E W X Y Z Z Z Z Z `  .K o p L M N O O O O O O P Q x b y R S T U U U U U U V h i E W X Y Z Z Z Z Z `  .K q ",
"6 L M N O O O O O O P Q x b y R S T U U U U U U V h i E W X Y Z Z Z Z Z `  .K o p L M N O O O O O O P Q x b y R S T U U U U U U V h i E W X Y Z Z Z Z Z `  .K q ",
"6 L M N O O O O O O P Q x b y R S T U U U U U U V h i E W X Y Z Z Z Z Z `  .K o p L M N O O O O O O P Q x b y R S T U U U U U U V h i E W X Y Z Z Z Z Z `  .K q ",
"6 L M N O O O O O O P Q x b y R S T U U U U U U V h i E W X Y Z Z Z Z Z `  .K o p L M N O O O O O O P Q x b y R S T U U U U U U V h i E W X Y Z Z Z Z Z `  .K q ",
"6 L M N O O O O O O P Q x b y R S T U U U U U U V h i E W X Y Z Z Z Z Z `  .K o p L M N O O O O O O P Q x b y R S T U U U U U U V h i E W X Y Z Z Z Z Z `  .K q ",
"6 L M N O O O O O O P Q x b y R S T U U U U U U V h i E W X Y Z Z Z Z Z `  .K o p L M N O O O O O O P Q x b y R S T U U U U U U V h i E W X Y Z Z Z Z Z `  .K q ",
"6 L M N O O O O O O P Q x b y R S T U U U U U U V h i E W X Y Z Z Z Z Z `  .K o p L M N O O O O O O P Q x b y R S T U U U U U U V h i E W X Y Z Z Z Z Z `  .K q ",
"6 L M N O O O O O O P Q x b y R S T U U U U U U V h i E W X Y Z Z Z Z Z `  .K o p L M N O O O O O O P Q x b y R S T U U U U U U V h i E W X Y Z Z Z Z Z `  .K q ",
"6 L M N O O O O O O P Q x b y R S T U U U U U U V h i E W X Y Z Z Z Z Z `  .K o p L M N O O O O O O P Q x b y R S T U U U U U U V h i E W X Y Z Z Z Z Z `  .K q ",
"6 L M N O O O O O O P Q x b y R S T U U U U U U V h i E W X Y Z Z Z Z Z `  .K o p L M N O O O O O O P Q x b y R S T U U U U U U V h i E W X Y Z Z Z Z Z `  .K q ",
"6 L ..+.@.#.#.#.#.#.$.Q x b y R %.&.*.*.*.*.*.*.V h i E F G k Y Y Y Y Y = =.K o p L ..+.@.#.#.#.#.#.$.Q x b y R %.&.*.*.*.*.*.*.V h i E F G k Y Y Y Y Y = =.K q ",
"6 -.;.>.,.'.'.'.'.'.).!.x b y ~.{.].^.^.^.^.^.^./.h i W (._.:.<.<.<.<.<.:.[.q o p -.;.>.,.'.'.'.'.'.).!.x b y ~.{.].^.^.^.^.^.^./.h i W (._.:.<.<.<.<.<.:.[.q q ",
"}.|.1.2.3.3.3.3.3.3.4.5.6.7.8.9.0.a.a.a.a.a.a.a.b.c.i d.e.f.g.g.g.g.g.g.g.h.i.o j.|.1.2.3.3.3.3.3.3.4.5.6.7.8.9.0.a.a.a.a.a.a.a.b.c.i d.e.f.g.g.g.g.g.g.g.h.i.q ",
"R.S.T.T.T.T.T.T.T.T.T.U.V.W.X.Y.Y.Y.Y.Y.Y.Y.Y.Y.Y.Z.`. +.+++++++++++++++++++@+#+$+S.T.T.T.T.T.T.T.T.T.U.V.W.X.Y.Y.Y.Y.Y.Y.Y.Y.Y.Y.Z.`. +.+++++++++++++++++++@+%+"};
