/* XPM */
static char * ground_xpm[] = {
"80 80 94 2",
"  	c #FCEDDF",
". 	c #F9DDC5",
"+ 	c #F8DAC0",
"@ 	c #F6D7BB",
"# 	c #EECAA9",
"$ 	c #FAE8D6",
"% 	c #F9DFC7",
"& 	c #F8DAC1",
"* 	c #F5D4B8",
"= 	c #E9BE96",
"- 	c #ECC5A0",
"; 	c #EFCDAD",
"> 	c #F9E6D3",
", 	c #F4D3B7",
"' 	c #E9BF98",
") 	c #E7BB91",
"! 	c #ECC59F",
"~ 	c #FBEBDB",
"{ 	c #F8DCC3",
"] 	c #F8DBC2",
"^ 	c #F5D6BA",
"/ 	c #EDC9A7",
"( 	c #FEF3E7",
"_ 	c #FEF2E6",
": 	c #FDF1E3",
"< 	c #E9BF97",
"[ 	c #EDC7A4",
"} 	c #FEF2E5",
"| 	c #FCE4CE",
"1 	c #FCE4CF",
"2 	c #FBE2CD",
"3 	c #E8BD94",
"4 	c #FBE3CD",
"5 	c #FDE5D0",
"6 	c #FCE4D0",
"7 	c #EED3BE",
"8 	c #DDBEA8",
"9 	c #F9E0CB",
"0 	c #FBE2CC",
"a 	c #F1D0B3",
"b 	c #F7DBC2",
"c 	c #F0D6C1",
"d 	c #D5AD8F",
"e 	c #DAAE87",
"f 	c #D4B096",
"g 	c #ECC7A5",
"h 	c #EAC19A",
"i 	c #ECC4A0",
"j 	c #F8DCC4",
"k 	c #EACFB9",
"l 	c #D1A581",
"m 	c #EBC29B",
"n 	c #E7BF9B",
"o 	c #EBC49E",
"p 	c #F6D8BF",
"q 	c #EDD2BD",
"r 	c #D3A988",
"s 	c #E9C099",
"t 	c #EAC29B",
"u 	c #F7DAC1",
"v 	c #E8CCB7",
"w 	c #D7AD8C",
"x 	c #ECC49F",
"y 	c #EBC39E",
"z 	c #F5D7BD",
"A 	c #D4AA89",
"B 	c #E9C19B",
"C 	c #FCE5D0",
"D 	c #EED2BD",
"E 	c #F6DAC1",
"F 	c #EDC8A5",
"G 	c #FCEFE2",
"H 	c #FAE1CC",
"I 	c #F9E0CA",
"J 	c #EDC7A3",
"K 	c #EECEB2",
"L 	c #C2997F",
"M 	c #BF957A",
"N 	c #C1967B",
"O 	c #E1B58D",
"P 	c #EEC9A6",
"Q 	c #EBC9AE",
"R 	c #C3997E",
"S 	c #BC9075",
"T 	c #C09578",
"U 	c #DFB38C",
"V 	c #E8BB91",
"W 	c #E9C7AB",
"X 	c #C59D83",
"Y 	c #C29779",
"Z 	c #DEB28B",
"` 	c #BB8F74",
" .	c #F0D0B5",
"..	c #E2B68E",
"  . + + + + + + + + + + + + + + + + + + + + + + + + + + + + + + + + + + + + + @   . + + + + + + + + + + + + + + + + + + + + + + + + + + + + + + + + + + + + + @ ",
"# $ % + + + + + + + + + + + + + + + + + + + + + + + + + + + + + + + + + + & * = # $ % + + + + + + + + + + + + + + + + + + + + + + + + + + + + + + + + + + & * = ",
"- ; > % + + + + + + + + + + + + + + + + + + + + + + + + + + + + + + + + & , ' ) - ; > % + + + + + + + + + + + + + + + + + + + + + + + + + + + + + + + + & , ' ) ",
"- ! ; $ . + + + + + + + + + + + + + + + + + + + + + + + + + + + + + + + * ' ) ) - ! ; $ . + + + + + + + + + + + + + + + + + + + + + + + + + + + + + + + * ' ) ) ",
"- - - # ~ { ] ] ] ] ] ] ] ] ] ] ] ] ] ] ] ] ] ] ] ] ] ] ] ] ] ] ] ] ] ^ = ) ) ) - - - # ~ { ] ] ] ] ] ] ] ] ] ] ] ] ] ] ] ] ] ] ] ] ] ] ] ] ] ] ] ] ] ^ = ) ) ) ",
"- - - - / ( _ _ _ _ _ _ _ _ _ _ _ _ _ _ _ _ _ _ _ _ _ _ _ _ _ _ _ _ : < ) ) ) ) - - - - / ( _ _ _ _ _ _ _ _ _ _ _ _ _ _ _ _ _ _ _ _ _ _ _ _ _ _ _ _ : < ) ) ) ) ",
"- - - - [ } | 1 1 1 1 1 1 1 1 1 1 1 1 1 1 1 1 1 1 1 1 1 1 1 1 1 1 1 2 3 ) ) ) ) - - - - [ } | 1 1 1 1 1 1 1 1 1 1 1 1 1 1 1 1 1 1 1 1 1 1 1 1 1 1 1 2 3 ) ) ) ) ",
"- - - - [ } 1 1 1 1 1 1 1 1 1 1 1 1 1 1 1 1 1 1 1 1 1 1 1 1 1 1 1 1 4 3 ) ) ) ) - - - - [ } 1 1 1 1 1 1 1 1 1 1 1 1 1 1 1 1 1 1 1 1 1 1 1 1 1 1 1 1 4 3 ) ) ) ) ",
"- - - - [ } 1 1 1 1 1 1 1 1 1 1 1 1 1 1 1 1 1 1 1 1 1 1 1 1 1 1 1 1 4 3 ) ) ) ) - - - - [ } 1 1 1 1 1 1 1 1 1 1 1 1 1 1 1 1 1 1 1 1 1 1 1 1 1 1 1 1 4 3 ) ) ) ) ",
"- - - - [ } 1 1 1 1 1 1 1 1 1 1 1 1 1 1 1 1 1 1 1 1 1 1 1 1 1 1 1 1 4 3 ) ) ) ) - - - - [ } 1 1 1 1 1 1 1 1 1 1 1 1 1 1 1 1 1 1 1 1 1 1 1 1 1 1 1 1 4 3 ) ) ) ) ",
"- - - - [ } 1 1 1 1 1 1 1 1 1 1 1 1 1 1 1 1 1 1 1 1 1 1 1 1 1 1 1 1 4 3 ) ) ) ) - - - - [ } 1 1 1 1 1 1 1 1 1 1 1 1 1 1 1 1 1 1 1 1 1 1 1 1 1 1 1 1 4 3 ) ) ) ) ",
"- - - - [ } 1 1 1 1 1 1 1 1 1 1 1 1 1 1 1 1 1 1 1 1 1 1 1 1 1 1 1 1 4 3 ) ) ) ) - - - - [ } 1 1 1 1 1 1 1 1 1 1 1 1 1 1 1 1 1 1 1 1 1 1 1 1 1 1 1 1 4 3 ) ) ) ) ",
"- - - - [ } 1 1 1 1 1 1 1 1 1 1 1 1 1 1 1 1 1 1 1 1 1 1 1 1 1 1 1 1 4 3 ) ) ) ) - - - - [ } 1 1 1 1 1 1 1 1 1 1 1 1 1 1 1 1 1 1 1 1 1 1 1 1 1 1 1 1 4 3 ) ) ) ) ",
"- - - - [ } 1 1 1 1 1 1 1 1 1 1 1 1 1 1 1 1 1 1 1 1 1 1 1 1 1 1 1 1 4 3 ) ) ) ) - - - - [ } 1 1 1 1 1 1 1 1 1 1 1 1 1 1 1 1 1 1 1 1 1 1 1 1 1 1 1 1 4 3 ) ) ) ) ",
"- - - - [ } 1 1 1 1 1 1 1 1 1 1 1 1 1 1 1 1 1 1 1 1 1 1 1 1 1 1 1 1 4 3 ) ) ) ) - - - - [ } 1 1 1 1 1 1 1 1 1 1 1 1 1 1 1 1 1 1 1 1 1 1 1 1 1 1 1 1 4 3 ) ) ) ) ",
"- - - - [ } 1 1 1 1 1 1 1 1 1 1 1 1 1 1 1 1 1 1 1 1 1 1 1 1 1 1 1 1 4 3 ) ) ) ) - - - - [ } 1 1 1 1 1 1 1 1 1 1 1 1 1 1 1 1 1 1 1 1 1 1 1 1 1 1 1 1 4 3 ) ) ) ) ",
"- - - - [ } 1 1 1 1 1 1 1 1 1 1 1 1 5 1 1 6 1 1 1 1 1 1 1 1 1 1 1 1 4 3 ) ) ) ) - - - - [ } 1 1 1 1 1 1 1 1 1 1 1 1 1 1 1 1 1 1 1 1 1 1 1 1 1 1 1 1 4 3 ) ) ) ) ",
"- - - - [ } 1 1 1 1 1 1 1 1 1 1 5 7 8 9 0 a b 6 1 1 1 1 1 1 1 1 1 1 4 3 ) ) ) ) - - - - [ } 1 1 1 1 1 1 1 1 1 1 1 1 1 1 1 1 1 1 1 1 1 1 1 1 1 1 1 1 4 3 ) ) ) ) ",
"- - - - [ } 1 1 1 1 1 1 1 1 1 1 c d e f g h i j 1 1 1 1 1 1 1 1 1 1 4 3 ) ) ) ) - - - - [ } 1 1 1 1 1 1 1 1 1 1 1 1 1 1 1 1 1 1 1 1 1 1 1 1 1 1 1 1 4 3 ) ) ) ) ",
"- - - - [ } 1 1 1 1 1 1 1 1 1 1 k l m n o - < p 1 1 1 1 1 1 1 1 1 1 4 3 ) ) ) ) - - - - [ } 1 1 1 1 1 1 1 1 1 1 1 1 1 1 1 1 1 1 1 1 1 1 1 1 1 1 1 1 4 3 ) ) ) ) ",
"- - - - [ } 1 1 1 1 1 1 1 1 1 1 q r s - - ! t u 1 1 1 1 1 1 1 1 1 1 4 3 ) ) ) ) - - - - [ } 1 1 1 1 1 1 1 1 1 1 1 1 1 1 1 1 1 1 1 1 1 1 1 1 1 1 1 1 4 3 ) ) ) ) ",
"- - - - [ } 1 1 1 1 1 1 1 1 1 1 5 v w s x y z 6 1 1 1 1 1 1 1 1 1 1 4 3 ) ) ) ) - - - - [ } 1 1 1 1 1 1 1 1 1 1 1 1 1 1 1 1 1 1 1 1 1 1 1 1 1 1 1 1 4 3 ) ) ) ) ",
"- - - - [ } 1 1 1 1 1 1 1 1 1 1 1 5 v A B z C 1 1 1 1 1 1 1 1 1 1 1 4 3 ) ) ) ) - - - - [ } 1 1 1 1 1 1 1 1 1 1 1 1 1 1 1 1 1 1 1 1 1 1 1 1 1 1 1 1 4 3 ) ) ) ) ",
"- - - - [ } 1 1 1 1 1 1 1 1 1 1 1 1 5 D E 6 1 1 1 1 1 1 1 1 1 1 1 1 4 3 ) ) ) ) - - - - [ } 1 1 1 1 1 1 1 1 1 1 1 1 1 1 1 1 1 1 1 1 1 1 1 1 1 1 1 1 4 3 ) ) ) ) ",
"- - - - [ } 1 1 1 1 1 1 1 1 1 1 1 1 1 1 1 1 1 1 1 1 1 1 1 1 1 1 1 1 4 3 ) ) ) ) - - - - [ } 1 1 1 1 1 1 1 1 1 1 1 1 1 1 1 1 1 1 1 1 1 1 1 1 1 1 1 1 4 3 ) ) ) ) ",
"- - - - [ } 1 1 1 1 1 1 1 1 1 1 1 1 1 1 1 1 1 1 1 1 1 1 1 1 1 1 1 1 4 3 ) ) ) ) - - - - [ } 1 1 1 1 1 1 1 1 1 1 1 1 1 1 1 1 1 1 1 1 1 1 1 1 1 1 1 1 4 3 ) ) ) ) ",
"- - - - [ } 1 1 1 1 1 1 1 1 1 1 1 1 1 1 1 1 1 1 1 1 1 1 1 1 1 1 1 1 4 3 ) ) ) ) - - - - [ } 1 1 1 1 1 1 1 1 1 1 1 1 1 1 1 1 1 1 1 1 1 1 1 1 1 1 1 1 4 3 ) ) ) ) ",
"- - - - [ } 1 1 1 1 1 1 1 1 1 1 1 1 1 1 1 1 1 1 1 1 1 1 1 1 1 1 1 1 4 3 ) ) ) ) - - - - [ } 1 1 1 1 1 1 1 1 1 1 1 1 1 1 1 1 1 1 1 1 1 1 1 1 1 1 1 1 4 3 ) ) ) ) ",
"- - - - [ } 1 1 1 1 1 1 1 1 1 1 1 1 1 1 1 1 1 1 1 1 1 1 1 1 1 1 1 1 4 3 ) ) ) ) - - - - [ } 1 1 1 1 1 1 1 1 1 1 1 1 1 1 1 1 1 1 1 1 1 1 1 1 1 1 1 1 4 3 ) ) ) ) ",
"- - - - [ } 1 1 1 1 1 1 1 1 1 1 1 1 1 1 1 1 1 1 1 1 1 1 1 1 1 1 1 1 4 3 ) ) ) ) - - - - [ } 1 1 1 1 1 1 1 1 1 1 1 1 1 1 1 1 1 1 1 1 1 1 1 1 1 1 1 1 4 3 ) ) ) ) ",
"- - - - [ } 1 1 1 1 1 1 1 1 1 1 1 1 1 1 1 1 1 1 1 1 1 1 1 1 1 1 1 1 4 3 ) ) ) ) - - - - [ } 1 1 1 1 1 1 1 1 1 1 1 1 1 1 1 1 1 1 1 1 1 1 1 1 1 1 1 1 4 3 ) ) ) ) ",
"- - - - [ } 1 1 1 1 1 1 1 1 1 1 1 1 1 1 1 1 1 1 1 1 1 1 1 1 1 1 1 1 4 3 ) ) ) ) - - - - [ } 1 1 1 1 1 1 1 1 1 1 1 1 1 1 1 1 1 1 1 1 1 1 1 1 1 1 1 1 4 3 ) ) ) ) ",
"- - - - [ } 1 1 1 1 1 1 1 1 1 1 1 1 1 1 1 1 1 1 1 1 1 1 1 1 1 1 1 1 4 3 ) ) ) ) - - - - [ } 1 1 1 1 1 1 1 1 1 1 1 1 1 1 1 1 1 1 1 1 1 1 1 1 1 1 1 1 4 3 ) ) ) ) ",
"- - - - [ } 1 1 1 1 1 1 1 1 1 1 1 1 1 1 1 1 1 1 1 1 1 1 1 1 1 1 1 1 4 3 ) ) ) ) - - - - [ } 1 1 1 1 1 1 1 1 1 1 1 1 1 1 1 1 1 1 1 1 1 1 1 1 1 1 1 1 4 3 ) ) ) ) ",
"- - - - F G H H H H H H H H H H H H H H H H H H H H H H H H H H H H I 3 ) ) ) ) - - - - F G H H H H H H H H H H H H H H H H H H H H H H H H H H H H I 3 ) ) ) ) ",
"- - - J K L M M M M M M M M M M M M M M M M M M M M M M M M M M M M N O ) ) ) ) - - - J K L M M M M M M M M M M M M M M M M M M M M M M M M M M M M N O ) ) ) ) ",
"- - P Q R S S S S S S S S S S S S S S S S S S S S S S S S S S S S S S T U V ) ) - - P Q R S S S S S S S S S S S S S S S S S S S S S S S S S S S S S S T U V ) ) ",
"- P W X S S S S S S S S S S S S S S S S S S S S S S S S S S S S S S S S Y Z V ) - P W X S S S S S S S S S S S S S S S S S S S S S S S S S S S S S S S S Y Z V ) ",
"J Q X ` S S S S S S S S S S S S S S S S S S S S S S S S S S S S S S S S S Y U ) J Q X ` S S S S S S S S S S S S S S S S S S S S S S S S S S S S S S S S S Y U ) ",
" .R S S S S S S S S S S S S S S S S S S S S S S S S S S S S S S S S S S S S T .. .R S S S S S S S S S S S S S S S S S S S S S S S S S S S S S S S S S S S S T ..",
"  . + + + + + + + + + + + + + + + + + + + + + + + + + + + + + + + + + + + + + @   . + + + + + + + + + + + + + + + + + + + + + + + + + + + + + + + + + + + + + @ ",
"# $ % + + + + + + + + + + + + + + + + + + + + + + + + + + + + + + + + + + & * = # $ % + + + + + + + + + + + + + + + + + + + + + + + + + + + + + + + + + + & * = ",
"- ; > % + + + + + + + + + + + + + + + + + + + + + + + + + + + + + + + + & , ' ) - ; > % + + + + + + + + + + + + + + + + + + + + + + + + + + + + + + + + & , ' ) ",
"- ! ; $ . + + + + + + + + + + + + + + + + + + + + + + + + + + + + + + + * ' ) ) - ! ; $ . + + + + + + + + + + + + + + + + + + + + + + + + + + + + + + + * ' ) ) ",
"- - - # ~ { ] ] ] ] ] ] ] ] ] ] ] ] ] ] ] ] ] ] ] ] ] ] ] ] ] ] ] ] ] ^ = ) ) ) - - - # ~ { ] ] ] ] ] ] ] ] ] ] ] ] ] ] ] ] ] ] ] ] ] ] ] ] ] ] ] ] ] ^ = ) ) ) ",
"- - - - / ( _ _ _ _ _ _ _ _ _ _ _ _ _ _ _ _ _ _ _ _ _ _ _ _ _ _ _ _ : < ) ) ) ) - - - - / ( _ _ _ _ _ _ _ _ _ _ _ _ _ _ _ _ _ _ _ _ _ _ _ _ _ _ _ _ : < ) ) ) ) ",
"- - - - [ } | 1 1 1 1 1 1 1 1 1 1 1 1 1 1 1 1 1 1 1 1 1 1 1 1 1 1 1 2 3 ) ) ) ) - - - - [ } | 1 1 1 1 1 1 1 1 1 1 1 1 1 1 1 1 1 1 1 1 1 1 1 1 1 1 1 2 3 ) ) ) ) ",
"- - - - [ } 1 1 1 1 1 1 1 1 1 1 1 1 1 1 1 1 1 1 1 1 1 1 1 1 1 1 1 1 4 3 ) ) ) ) - - - - [ } 1 1 1 1 1 1 1 1 1 1 1 1 1 1 1 1 1 1 1 1 1 1 1 1 1 1 1 1 4 3 ) ) ) ) ",
"- - - - [ } 1 1 1 1 1 1 1 1 1 1 1 1 1 1 1 1 1 1 1 1 1 1 1 1 1 1 1 1 4 3 ) ) ) ) - - - - [ } 1 1 1 1 1 1 1 1 1 1 1 1 1 1 1 1 1 1 1 1 1 1 1 1 1 1 1 1 4 3 ) ) ) ) ",
"- - - - [ } 1 1 1 1 1 1 1 1 1 1 1 1 1 1 1 1 1 1 1 1 1 1 1 1 1 1 1 1 4 3 ) ) ) ) - - - - [ } 1 1 1 1 1 1 1 1 1 1 1 1 1 1 1 1 1 1 1 1 1 1 1 1 1 1 1 1 4 3 ) ) ) ) ",
"- - - - [ } 1 1 1 1 1 1 1 1 1 1 1 1 1 1 1 1 1 1 1 1 1 1 1 1 1 1 1 1 4 3 ) ) ) ) - - - - [ } 1 1 1 1 1 1 1 1 1 1 1 1 1 1 1 1 1 1 1 1 1 1 1 1 1 1 1 1 4 3 ) ) ) ) ",
"- - - - [ } 1 1 1 1 1 1 1 1 1 1 1 1 1 1 1 1 1 1 1 1 1 1 1 1 1 1 1 1 4 3 ) ) ) ) - - - - [ } 1 1 1 1 1 1 1 1 1 1 1 1 1 1 1 1 1 1 1 1 1 1 1 1 1 1 1 1 4 3 ) ) ) ) ",
"- - - - [ } 1 1 1 1 1 1 1 1 1 1 1 1 1 1 1 1 1 1 1 1 1 1 1 1 1 1 1 1 4 3 ) ) ) ) - - - - [ } 1 1 1 1 1 1 1 1 1 1 1 1 1 1 1 1 1 1 1 1 1 1 1 1 1 1 1 1 4 3 ) ) ) ) ",
"- - - - [ } 1 1 1 1 1 1 1 1 1 1 1 1 1 1 1 1 1 1 1 1 1 1 1 1 1 1 1 1 4 3 ) ) ) ) - - - - [ } 1 1 1 1 1 1 1 1 1 1 1 1 1 1 1 1 1 1 1 1 1 1 1 1 1 1 1 1 4 3 ) ) ) ) ",
"- - - - [ } 1 1 1 1 1 1 1 1 1 1 1 1 1 1 1 1 1 1 1 1 1 1 1 1 1 1 1 1 4 3 ) ) ) ) - - - - [ } 1 1 1 1 1 1 1 1 1 1 1 1 1 1 1 1 1 1 1 1 1 1 1 1 1 1 1 1 4 3 ) ) ) ) ",
"- - - - [ } 1 1 1 1 1 1 1 1 1 1 1 1 1 1 1 1 1 1 1 1 1 1 1 1 1 1 1 1 4 3 ) ) ) ) - - - - [ } 1 1 1 1 1 1 1 1 1 1 1 1 1 1 1 1 1 1 1 1 1 1 1 1 1 1 1 1 4 3 ) ) ) ) ",
"- - - - [ } 1 1 1 1 1 1 1 1 1 1 1 1 1 1 1 1 1 1 1 1 1 1 1 1 1 1 1 1 4 3 ) ) ) ) - - - - [ } 1 1 1 1 1 1 1 1 1 1 1 1 5 1 1 6 1 1 1 1 1 1 1 1 1 1 1 1 4 3 ) ) ) ) ",
"- - - - [ } 1 1 1 1 1 1 1 1 1 1 1 1 1 1 1 1 1 1 1 1 1 1 1 1 1 1 1 1 4 3 ) ) ) ) - - - - [ } 1 1 1 1 1 1 1 1 1 1 5 7 8 9 0 a b 6 1 1 1 1 1 1 1 1 1 1 4 3 ) ) ) ) ",
"- - - - [ } 1 1 1 1 1 1 1 1 1 1 1 1 1 1 1 1 1 1 1 1 1 1 1 1 1 1 1 1 4 3 ) ) ) ) - - - - [ } 1 1 1 1 1 1 1 1 1 1 c d e f g h i j 1 1 1 1 1 1 1 1 1 1 4 3 ) ) ) ) ",
"- - - - [ } 1 1 1 1 1 1 1 1 1 1 1 1 1 1 1 1 1 1 1 1 1 1 1 1 1 1 1 1 4 3 ) ) ) ) - - - - [ } 1 1 1 1 1 1 1 1 1 1 k l m n o - < p 1 1 1 1 1 1 1 1 1 1 4 3 ) ) ) ) ",
"- - - - [ } 1 1 1 1 1 1 1 1 1 1 1 1 1 1 1 1 1 1 1 1 1 1 1 1 1 1 1 1 4 3 ) ) ) ) - - - - [ } 1 1 1 1 1 1 1 1 1 1 q r s - - ! t u 1 1 1 1 1 1 1 1 1 1 4 3 ) ) ) ) ",
"- - - - [ } 1 1 1 1 1 1 1 1 1 1 1 1 1 1 1 1 1 1 1 1 1 1 1 1 1 1 1 1 4 3 ) ) ) ) - - - - [ } 1 1 1 1 1 1 1 1 1 1 5 v w s x y z 6 1 1 1 1 1 1 1 1 1 1 4 3 ) ) ) ) ",
"- - - - [ } 1 1 1 1 1 1 1 1 1 1 1 1 1 1 1 1 1 1 1 1 1 1 1 1 1 1 1 1 4 3 ) ) ) ) - - - - [ } 1 1 1 1 1 1 1 1 1 1 1 5 v A B z C 1 1 1 1 1 1 1 1 1 1 1 4 3 ) ) ) ) ",
"- - - - [ } 1 1 1 1 1 1 1 1 1 1 1 1 1 1 1 1 1 1 1 1 1 1 1 1 1 1 1 1 4 3 ) ) ) ) - - - - [ } 1 1 1 1 1 1 1 1 1 1 1 1 5 D E 6 1 1 1 1 1 1 1 1 1 1 1 1 4 3 ) ) ) ) ",
"- - - - [ } 1 1 1 1 1 1 1 1 1 1 1 1 1 1 1 1 1 1 1 1 1 1 1 1 1 1 1 1 4 3 ) ) ) ) - - - - [ } 1 1 1 1 1 1 1 1 1 1 1 1 1 1 1 1 1 1 1 1 1 1 1 1 1 1 1 1 4 3 ) ) ) ) ",
"- - - - [ } 1 1 1 1 1 1 1 1 1 1 1 1 1 1 1 1 1 1 1 1 1 1 1 1 1 1 1 1 4 3 ) ) ) ) - - - - [ } 1 1 1 1 1 1 1 1 1 1 1 1 1 1 1 1 1 1 1 1 1 1 1 1 1 1 1 1 4 3 ) ) ) ) ",
"- - - - [ } 1 1 1 1 1 1 1 1 1 1 1 1 1 1 1 1 1 1 1 1 1 1 1 1 1 1 1 1 4 3 ) ) ) ) - - - - [ } 1 1 1 1 1 1 1 1 1 1 1 1 1 1 1 1 1 1 1 1 1 1 1 1 1 1 1 1 4 3 ) ) ) ) ",
"- - - - [ } 1 1 1 1 1 1 1 1 1 1 1 1 1 1 1 1 1 1 1 1 1 1 1 1 1 1 1 1 4 3 ) ) ) ) - - - - [ } 1 1 1 1 1 1 1 1 1 1 1 1 1 1 1 1 1 1 1 1 1 1 1 1 1 1 1 1 4 3 ) ) ) ) ",
"- - - - [ } 1 1 1 1 1 1 1 1 1 1 1 1 1 1 1 1 1 1 1 1 1 1 1 1 1 1 1 1 4 3 ) ) ) ) - - - - [ } 1 1 1 1 1 1 1 1 1 1 1 1 1 1 1 1 1 1 1 1 1 1 1 1 1 1 1 1 4 3 ) ) ) ) ",
"- - - - [ } 1 1 1 1 1 1 1 1 1 1 1 1 1 1 1 1 1 1 1 1 1 1 1 1 1 1 1 1 4 3 ) ) ) ) - - - - [ } 1 1 1 1 1 1 1 1 1 1 1 1 1 1 1 1 1 1 1 1 1 1 1 1 1 1 1 1 4 3 ) ) ) ) ",
"- - - - [ } 1 1 1 1 1 1 1 1 1 1 1 1 1 1 1 1 1 1 1 1 1 1 1 1 1 1 1 1 4 3 ) ) ) ) - - - - [ } 1 1 1 1 1 1 1 1 1 1 1 1 1 1 1 1 1 1 1 1 1 1 1 1 1 1 1 1 4 3 ) ) ) ) ",
"- - - - [ } 1 1 1 1 1 1 1 1 1 1 1 1 1 1 1 1 1 1 1 1 1 1 1 1 1 1 1 1 4 3 ) ) ) ) - - - - [ } 1 1 1 1 1 1 1 1 1 1 1 1 1 1 1 1 1 1 1 1 1 1 1 1 1 1 1 1 4 3 ) ) ) ) ",
"- - - - [ } 1 1 1 1 1 1 1 1 1 1 1 1 1 1 1 1 1 1 1 1 1 1 1 1 1 1 1 1 4 3 ) ) ) ) - - - - [ } 1 1 1 1 1 1 1 1 1 1 1 1 1 1 1 1 1 1 1 1 1 1 1 1 1 1 1 1 4 3 ) ) ) ) ",
"- - - - [ } 1 1 1 1 1 1 1 1 1 1 1 1 1 1 1 1 1 1 1 1 1 1 1 1 1 1 1 1 4 3 ) ) ) ) - - - - [ } 1 1 1 1 1 1 1 1 1 1 1 1 1 1 1 1 1 1 1 1 1 1 1 1 1 1 1 1 4 3 ) ) ) ) ",
"- - - - F G H H H H H H H H H H H H H H H H H H H H H H H H H H H H I 3 ) ) ) ) - - - - F G H H H H H H H H H H H H H H H H H H H H H H H H H H H H I 3 ) ) ) ) ",
"- - - J K L M M M M M M M M M M M M M M M M M M M M M M M M M M M M N O ) ) ) ) - - - J K L M M M M M M M M M M M M M M M M M M M M M M M M M M M M N O ) ) ) ) ",
"- - P Q R S S S S S S S S S S S S S S S S S S S S S S S S S S S S S S T U V ) ) - - P Q R S S S S S S S S S S S S S S S S S S S S S S S S S S S S S S T U V ) ) ",
"- P W X S S S S S S S S S S S S S S S S S S S S S S S S S S S S S S S S Y Z V ) - P W X S S S S S S S S S S S S S S S S S S S S S S S S S S S S S S S S Y Z V ) ",
"J Q X ` S S S S S S S S S S S S S S S S S S S S S S S S S S S S S S S S S Y U ) J Q X ` S S S S S S S S S S S S S S S S S S S S S S S S S S S S S S S S S Y U ) ",
" .R S S S S S S S S S S S S S S S S S S S S S S S S S S S S S S S S S S S S T .. .R S S S S S S S S S S S S S S S S S S S S S S S S S S S S S S S S S S S S T .."};
